<?xml version="1.0" encoding="utf-8"?>
<!-- Generator: Adobe Illustrator 18.0.0, SVG Export Plug-In . SVG Version: 6.00 Build 0)  -->
<!DOCTYPE svg PUBLIC "-//W3C//DTD SVG 1.1//EN" "http://www.w3.org/Graphics/SVG/1.1/DTD/svg11.dtd">
<svg version="1.1" id="Layer_1" xmlns="http://www.w3.org/2000/svg" xmlns:xlink="http://www.w3.org/1999/xlink" x="0px" y="0px"
	 viewBox="0 0 650 83.1" enable-background="new 0 0 650 83.1" xml:space="preserve">
<g>
	<g>
		<path fill="#2ad8da" d="M0,80.5V2.6h20c6.2,0,11,0.4,14.7,1.3c3.6,0.9,6.8,2.4,9.6,4.5c2.9,2.1,5.1,4.8,6.7,7.9
			c1.6,3.2,2.4,6.5,2.4,10.1c0,7.9-2.8,14.1-8.4,18.8c-5.6,4.6-13.2,6.9-22.8,6.9c-1,0-1.8,0-2.3,0c-0.5,0-1,0-1.4-0.1v28.5H0z
			 M21.1,16.9h-2.5v20.8H22c4.7,0,8.3-0.9,10.7-2.7c2.5-1.8,3.7-4.4,3.7-7.8c0-3.5-1.2-6.1-3.7-7.8C30.3,17.7,26.5,16.9,21.1,16.9z"
			/>
		<path fill="#2ad8da" d="M60.5,80.5V2.6h20c6.4,0,11.4,0.4,14.9,1.3c3.5,0.8,6.7,2.2,9.4,4.2c2.9,2.1,5.1,4.6,6.7,7.7
			c1.6,3.1,2.4,6.3,2.4,9.7c0,4.9-1.2,9.2-3.7,12.9c-2.5,3.7-6.1,6.6-10.8,8.7l23.7,33.5H102L81.2,50h-2.6v30.6H60.5z M81.6,16.8
			h-3.1v21.6h3.9c4.7,0,8.3-0.9,10.7-2.8c2.5-1.9,3.7-4.6,3.7-8.2c0-3.7-1.2-6.4-3.6-8.1C90.9,17.6,87,16.8,81.6,16.8z"/>
		<path fill="#2ad8da" d="M211.2,80.5V2.6h48v16.1h-29.9v14.1h25.6v16h-25.6v15.4h30.4v16.4H211.2z"/>
		<path fill="#2ad8da" d="M269.9,80.5V2.6h18.4v33.9L314,2.6h22.1l-29.4,37.1l31.7,40.8H316l-27.7-35.9v35.9H269.9z"/>
		<path fill="#2ad8da" d="M342.9,59.4c4.1,2.4,7.7,4.2,10.7,5.2c3.3,1.2,6.6,1.8,9.8,1.8c3.2,0,5.8-0.7,7.8-2.1
			c2-1.4,2.9-3.2,2.9-5.5c0-3.2-3.5-6.8-10.4-10.7c-1.1-0.6-2-1.1-2.6-1.5l-5.3-3c-5.1-2.9-8.9-6.2-11.4-9.8
			c-2.5-3.7-3.7-7.8-3.7-12.4c0-6.3,2.4-11.4,7.1-15.4c4.7-4,10.8-6,18.3-6c2.8,0,5.7,0.3,9,1c3.2,0.6,6.8,1.6,10.7,3v18.3
			c-3.8-2.4-7.3-4.2-10.7-5.5c-3.4-1.3-6.2-1.9-8.6-1.9c-2.6,0-4.7,0.6-6.2,1.7c-1.5,1.1-2.3,2.7-2.3,4.6c0,1.4,0.4,2.6,1.3,3.8
			c0.9,1.2,2.2,2.3,4,3.2l9.1,5c7.6,4.2,12.8,8.1,15.4,11.7c2.6,3.6,3.9,7.8,3.9,12.7c0,7.6-2.6,13.7-7.8,18.4c-5.2,4.7-12,7-20.6,7
			c-2.9,0-6.1-0.3-9.5-0.9c-3.4-0.6-7.1-1.6-11.2-2.8L342.9,59.4z"/>
		<path fill="#2ad8da" d="M401,80.5V2.6h20c6.2,0,11,0.4,14.7,1.3c3.6,0.9,6.8,2.4,9.6,4.5c2.9,2.1,5.1,4.8,6.7,7.9
			c1.6,3.2,2.4,6.5,2.4,10.1c0,7.9-2.8,14.1-8.4,18.8c-5.6,4.6-13.2,6.9-22.8,6.9c-1,0-1.8,0-2.3,0c-0.5,0-1,0-1.4-0.1v28.5H401z
			 M422.1,16.9h-2.5v20.8h3.4c4.7,0,8.3-0.9,10.7-2.7c2.5-1.8,3.7-4.4,3.7-7.8c0-3.5-1.2-6.1-3.7-7.8
			C431.3,17.7,427.4,16.9,422.1,16.9z"/>
		<path fill="#2ad8da" d="M462.1,80.5V2.6h48v16.1h-29.9v14.1h25.6v16h-25.6v15.4h30.4v16.4H462.1z"/>
		<path fill="#2ad8da" d="M521.9,80.5V2.6h20c6.4,0,11.4,0.4,14.9,1.3c3.5,0.8,6.7,2.2,9.4,4.2c2.9,2.1,5.1,4.6,6.7,7.7
			c1.6,3.1,2.4,6.3,2.4,9.7c0,4.9-1.2,9.2-3.7,12.9c-2.5,3.7-6.1,6.6-10.8,8.7l23.7,33.5h-21.2L542.6,50H540v30.6H521.9z M543,16.8
			H540v21.6h3.9c4.7,0,8.3-0.9,10.7-2.8c2.5-1.9,3.7-4.6,3.7-8.2c0-3.7-1.2-6.4-3.6-8.1C552.4,17.6,548.5,16.8,543,16.8z"/>
		<path fill="#2ad8da" d="M605.7,80.5V18.9h-24.8V2.6H650v16.3h-25.7v61.6H605.7z"/>
		<path fill="#2ad8da" d="M161.2,18.2c12.9,0,23.4,10.5,23.4,23.4S174.1,65,161.2,65c-12.9,0-23.4-10.5-23.4-23.4
			S148.3,18.2,161.2,18.2 M161.2,0.1c-22.9,0-41.5,18.6-41.5,41.5c0,22.9,18.6,41.5,41.5,41.5s41.5-18.6,41.5-41.5
			C202.7,18.7,184.1,0.1,161.2,0.1L161.2,0.1z"/>
	</g>
</g>
</svg>
